<svg width="24" height="25" fill="none" xmlns="http://www.w3.org/2000/svg">
	<path d="M5 10.5047c-.3866 0-.7.3134-.7.7 0 .3866.3134.7.7.7v-1.4Zm13.75 1.4c.3866 0 .7-.3134.7-.7 0-.3866-.3134-.7-.7-.7v1.4ZM6.25 8.15474H17.5v-1.4H6.25v1.4Zm11.25 0c.3038 0 .55.24625.55.55h1.4c0-1.07695-.873-1.95-1.95-1.95v1.4Zm.55.55v7.49996h1.4V8.70474h-1.4Zm0 7.49996c0 .3038-.2462.55-.55.55v1.4c1.077 0 1.95-.873 1.95-1.95h-1.4Zm-.55.55H6.25v1.4H17.5v-1.4Zm-11.25 0c-.30376 0-.55-.2462-.55-.55H4.3c0 1.077.87304 1.95 1.95 1.95v-1.4Zm-.55-.55V8.70474H4.3v7.49996h1.4Zm0-7.49996c0-.30375.24624-.55.55-.55v-1.4c-1.07696 0-1.95.87305-1.95 1.95h1.4ZM5 11.9047h13.75v-1.4H5v1.4Z" fill="current" />
</svg>
