<svg width="24" height="25" fill="none" xmlns="http://www.w3.org/2000/svg">
	<path d="M8.11111 19.4547h7.77779C17.6 19.4547 19 18.073 19 16.3842v-4.9896c0-.9979-.4667-1.84229-1.2444-2.45639l-3.8889-2.917c-1.0889-.76763-2.6445-.76763-3.7334.07677L6.24444 8.93821C5.46667 9.55231 5 10.3967 5 11.3946v4.9896c0 1.6888 1.4 3.0705 3.11111 3.0705Zm-1.55555-8.0601c0-.4606.23333-.9211.62222-1.2282l3.88892-2.91698c.3111-.23029.6222-.30705.9333-.30705.3111 0 .6222.07676.9333.30705l3.8889 2.91698c.3889.3071.6222.7676.6222 1.2282v4.9896c0 .8444-.7 1.5353-1.5555 1.5353H8.11111c-.85555 0-1.55555-.6909-1.55555-1.5353v-4.9896Z" fill="current" />
</svg>
