<svg width="24" height="25" fill="none" xmlns="http://www.w3.org/2000/svg"><path d="M17.7775 15.6663c-.8642-1.0577-1.4743-1.5962-1.4743-4.5123 0-2.67044-1.3637-3.62184-2.486-4.0839-.1491-.06125-.2895-.20193-.3349-.35505-.1969-.67005-.7488-1.26034-1.4824-1.26034-.7337 0-1.286.59063-1.4808 1.26101-.0455.15481-.1858.29313-.3349.35438-1.12368.46274-2.48598 1.41077-2.48598 4.0839-.00169 2.9161-.61183 3.4546-1.47606 4.5123-.35808.4382-.04442 1.0961.58187 1.0961H17.199c.623 0 .9346-.6599.5785-1.0961ZM14.1538 16.7624v.5385c0 .5712-.227 1.119-.6309 1.523-.4039.4039-.9517.6308-1.523.6308-.5712 0-1.1191-.2269-1.523-.6308-.4039-.404-.63083-.9518-.63083-1.523v-.5385" stroke="#78797A" stroke-width="1.5" stroke-linecap="round" stroke-linejoin="round"/></svg>