<svg width="24" height="25" fill="none" xmlns="http://www.w3.org/2000/svg">
	<path d="M17.061 12.0478c-.145 0-.2841-.0576-.3866-.1601-.1026-.1025-.1602-.2416-.1602-.3866V9.95695c0-2.18713-2.0209-3.93683-4.5055-3.93683-2.48456 0-4.50547 1.77157-4.50547 3.93683v1.54415c0 .145-.0576.2841-.16015.3866-.10254.1025-.24161.1601-.38663.1601-.14502 0-.28409-.0576-.38663-.1601-.10254-.1025-.16015-.2416-.16015-.3866V9.95695c0-2.78203 2.5152-5.04789 5.59903-5.04789 3.0839 0 5.5991 2.26586 5.5991 5.04789v1.54415c.0006.0719-.0132.1433-.0405.2099-.0272.0666-.0675.1271-.1184.178s-.1114.0911-.178.1184c-.0666.0273-.1379.041-.2099.0404Z" fill="current" stroke="#78797A" stroke-width=".4" />
	<path d="M15.5825 17.192c-.145 0-.2841-.0576-.3866-.1601-.1025-.1026-.1602-.2416-.1602-.3867V11.453c.0046-.142.0642-.2766.1663-.3754.102-.0988.2385-.154.3805-.1539 1.8853 0 3.4207 1.4129 3.4207 3.1451 0 1.7322-1.5354 3.1232-3.4207 3.1232Zm.5468-5.1354v3.985c.4787-.0793.9159-.3199 1.239-.682.323-.362.5125-.8237.537-1.3083-.0235-.4854-.2125-.9481-.5357-1.311-.3231-.363-.7609-.6042-1.2403-.6837ZM8.4175 17.192c-1.88531 0-3.42067-1.4085-3.42067-3.1407 0-1.7322 1.53536-3.1276 3.42067-3.1276.14501 0 .28409.0576.38663.1602.10254.1025.16015.2416.16015.3866v5.1747c0 .1451-.05761.2841-.16015.3867-.10254.1025-.24162.1601-.38663.1601Zm-.54679-5.1354c-.47941.0795-.91715.3207-1.24029.6837-.32315.3629-.51219.8256-.53566 1.311.02444.4846.21392.9463.53698 1.3083.32306.3621.76026.6027 1.23897.682v-3.985Z" fill="current" stroke="#78797A" stroke-width=".4" />
	<path d="M15.4031 18.9724h-1.8109c-.145 0-.2841-.0576-.3866-.1602-.1026-.1025-.1602-.2416-.1602-.3866s.0576-.2841.1602-.3867c.1025-.1025.2416-.1601.3866-.1601h1.8109c.2831 0 .5546-.1125.7547-.3126.2002-.2002.3127-.4717.3127-.7547v-.2406c0-.145.0576-.2841.1601-.3866.1025-.1026.2416-.1602.3866-.1602.1451 0 .2841.0576.3867.1602.1025.1025.1601.2416.1601.3866v.2406c0 .5731-.2276 1.1227-.6329 1.528-.4052.4052-.9549.6329-1.528.6329Z" fill="current" stroke="#78797A" stroke-width=".4" />
	<path d="M12.6562 20.0002h-1.0804c-.3968 0-.7773-.1577-1.0579-.4382-.2805-.2806-.4381-.6611-.4381-1.0578v-.0613c.0011-.396.1593-.7754.4397-1.055.2804-.2796.6603-.4366 1.0563-.4366h1.0804c.3956 0 .775.1571 1.0547.4369.2798.2797.4369.6591.4369 1.0547v.0613c0 .396-.157.7758-.4366 1.0562-.2796.2805-.659.4386-1.055.4398Zm-1.0717-1.9553c-.106 0-.2077.0418-.283.1163-.0754.0745-.1183.1757-.1194.2817v.0613c0 .1067.0424.209.1179.2845.0754.0755.1778.1179.2845.1179h1.0717c.106-.0012.2072-.0441.2817-.1194.0746-.0754.1164-.1771.1164-.283v-.0613c0-.1056-.042-.2068-.1166-.2815-.0747-.0746-.1759-.1165-.2815-.1165h-1.0717Z" fill="current" stroke="#78797A" stroke-width=".4" />
</svg>
