<svg width="24" height="25" fill="none" xmlns="http://www.w3.org/2000/svg">
	<path d="M20.2726 13.8299c-.003-.0443-.0101-.0883-.0213-.1314l-1.7389-4.63052c.3164-.20469.5767-.48528.7571-.81622.1803-.33095.275-.70174.2755-1.07863 0-.20011-.0794-.39203-.2209-.53353-.1415-.1415-.3335-.22099-.5336-.22099-.2001 0-.392.07949-.5335.22099-.1415.1415-.221.33342-.221.53353-.0001.16814-.0563.33145-.1597.46401-.1034.13257-.2481.22681-.4112.26777-.1631.04096-.3352.0263-.489-.04167-.1538-.06796-.2805-.18533-.36-.33348-.1936-.34368-.4767-.62847-.8192-.82412s-.7317-.29484-1.126-.28703h-1.9165v-.75452c0-.20011-.0795-.39202-.221-.53352-.1415-.1415-.3334-.22099-.5335-.22099s-.392.07949-.5335.22099c-.1415.1415-.221.33341-.221.53352v.75452H9.32889c-.39438-.00781-.78351.09138-1.12603.28703-.34251.19565-.62562.48044-.81924.82412-.0795.14815-.2062.26552-.35999.33348-.1538.06797-.32588.08263-.48896.04167-.16308-.04096-.30781-.1352-.41123-.26777-.10343-.13256-.15963-.29587-.15969-.46401 0-.20011-.0795-.39203-.221-.53353-.1415-.1415-.33341-.22099-.53352-.22099s-.39203.07949-.53353.22099c-.14149.1415-.22099.33342-.22099.53353.0005.37689.09523.74768.27559 1.07863.18036.33094.44061.61153.75708.81622l-1.7389 4.63052c-.01116.0431-.01828.0871-.02127.1314-.01325.0437-.02229.0885-.02701.1339 0 .007.00202.0134.00207.0204.00023.01.00226.0191.00294.029.01175.7914.33436 1.5464.89814 2.1018.56378.5555 1.32346.8669 2.11491.8669s1.55113-.3114 2.11491-.8669c.56378-.5554.88639-1.3104.89814-2.1018.00064-.0099.00272-.019.00294-.029.00005-.007.00208-.0134.00208-.0204-.00471-.0454-.01375-.0902-.02699-.1339-.00299-.0443-.01011-.0883-.02127-.1314L7.94711 9.06259c.31974-.20404.58285-.48542.76502-.81811.06584-.1024.15754-.18562.26583-.24125.10829-.05563.22934-.08171.35093-.07559h1.91651V18.4909H8.98181c-.20011 0-.39202.0795-.53352.221-.1415.1415-.221.3334-.221.5335s.0795.392.221.5335c.1415.1415.33341.221.53352.221h6.03609c.2002 0 .3921-.0795.5336-.221.1415-.1415.221-.3334.221-.5335s-.0795-.392-.221-.5335c-.1415-.1415-.3334-.221-.5336-.221h-2.2635V7.92764h1.9165c.1216-.00611.2426.01996.3509.07559.1083.05563.2.13885.2658.24125.1822.33269.4453.61407.765.81811l-1.7409 4.63591c-.0111.0431-.0183.0871-.0213.1314-.0132.0437-.0223.0885-.027.1339 0 .007.0021.0134.0021.0204.0002.01.0023.0191.0029.029.0118.7914.3344 1.5464.8982 2.1018.5638.5555 1.3234.8669 2.1149.8669.7914 0 1.5511-.3114 2.1149-.8669.5638-.5554.8864-1.3104.8981-2.1018.0007-.0099.0028-.019.003-.029 0-.007.0021-.0134.0021-.0204-.0048-.0454-.0138-.0902-.027-.1339ZM6.71826 10.0822l1.29978 4.6361H5.41185l1.30641-4.6361Zm1.29978 4.6361c-.13316.2272-.32284.4161-.5506.5483-.22775.1322-.48584.2033-.74918.2062-.26481-.0001-.52493-.0699-.75424-.2023-.22932-.1324-.41975-.3229-.55217-.5522h2.60619Zm9.26346-4.6361 1.2998 4.6361h-2.6062l1.3064-4.6361Zm0 5.3906c-.2648-.0001-.5249-.0699-.7543-.2023-.2293-.1324-.4197-.3229-.5521-.5522h2.6062c-.1332.2272-.3229.4161-.5506.5483-.2278.1322-.4859.2033-.7492.2062Z" fill="current" />
</svg>
