<svg width="24" height="25" fill="none" xmlns="http://www.w3.org/2000/svg">
	<path d="M16.5 5.00003H9c-.79565 0-1.55871.31607-2.12132.87868C6.31607 6.44132 6 7.20438 6 8.00003V17c0 .7957.31607 1.5587.87868 2.1214C7.44129 19.684 8.20435 20 9 20h7.5c.3978 0 .7794-.158 1.0607-.4393S18 18.8979 18 18.5V6.50003c0-.39782-.158-.77936-.4393-1.06066-.2813-.2813-.6629-.43934-1.0607-.43934Zm-9 3c0-.39782.15804-.77936.43934-1.06066.2813-.2813.66284-.43934 1.06066-.43934h7.5V14H9c-.52872.0022-1.04701.1474-1.5.42V8.00003ZM9 18.5c-.39782 0-.77936-.158-1.06066-.4393C7.65804 17.7794 7.5 17.3979 7.5 17c0-.3978.15804-.7793.43934-1.0606S8.60218 15.5 9 15.5h7.5v3H9Zm1.5-8.99997h3c.1989 0 .3897-.07902.5303-.21967.1407-.14065.2197-.33142.2197-.53033 0-.19891-.079-.38968-.2197-.53033-.1406-.14065-.3314-.21967-.5303-.21967h-3c-.1989 0-.3897.07902-.53033.21967-.14065.14065-.21967.33142-.21967.53033 0 .19891.07902.38968.21967.53033.14063.14065.33143.21967.53033.21967Z" fill="current" />
</svg>
