<svg width="24" height="25" fill="none" xmlns="http://www.w3.org/2000/svg">
	<path d="M19.8056 11.3485c-.0683-.0841-.1546-.152-.2526-.1984-.0979-.0465-.205-.0704-.3135-.0701h-1.4513v-.7256c0-.57744-.2294-1.13119-.6377-1.53947-.4083-.40828-.962-.63765-1.5394-.63765h-4.5573l-.2323-.72569c-.1505-.42581-.4297-.79426-.799-1.05431-.36928-.26004-.81027-.39881-1.26191-.39707H6.17713c-.57739 0-1.13114.22937-1.53942.63765-.40828.40828-.63765.96203-.63765 1.53942v8.70832c0 .5774.22937 1.1311.63765 1.5394.40828.4083.96203.6376 1.53942.6376H16.6271c.4943-.0014.9735-.171 1.3586-.481.3851-.3099.6533-.7417.7604-1.2243l1.2191-5.3919c.0221-.1082.0192-.22-.0085-.3269-.0276-.1069-.0793-.2061-.1511-.29ZM7.17133 17.0452c-.03687.1637-.12933.3096-.26164.4128-.13231.1032-.2963.1574-.46405.1533h-.26851c-.19246 0-.37705-.0765-.51314-.2126-.13609-.1361-.21255-.3207-.21255-.5131V8.17728c0-.19246.07646-.37704.21255-.51314.13609-.13609.32068-.21255.51314-.21255h2.58346c.15825-.00826.31485.03551.44589.12462.13103.0891.2293.21865.2798.36885l.39187 1.19014c.04657.13842.13385.25957.25035.34761.1165.08804.2569.13887.4028.14585h5.0798c.1925 0 .377.07646.5131.21255.1361.1361.2126.32069.2126.51319v.7256H9.07989c-.16775-.0041-.33174.0501-.46405.1533-.13231.1032-.22477.2491-.26164.4128l-1.18287 5.3991Zm10.15967 0c-.0369.1637-.1293.3096-.2617.4128-.1323.1032-.2963.1574-.464.1533H8.5066c.03748-.0809.06431-.1663.07982-.254l1.07402-4.8259h8.70826l-1.0377 4.5138Z" fill="current" />
</svg>
