<svg width="24" height="25" fill="none" xmlns="http://www.w3.org/2000/svg">
	<path d="M16.1996 8.94559c0-.13862-.0411-.27412-.1181-.38937-.077-.11526-.1865-.20509-.3146-.25813-.128-.05305-.2689-.06693-.4049-.03988-.1359.02704-.2608.09379-.3588.1918-.098.09802-.1648.2229-.1918.35885-.0271.13595-.0132.27687.0398.40493.0531.12806.1429.23752.2582.31453.1152.07701.2507.11811.3893.11811.1859 0 .3642-.07384.4956-.20527.1315-.13143.2053-.3097.2053-.49557ZM12.1487 19.2551l6.63-6.6441c.0705-.0653.1267-.1445.1653-.2325.0386-.088.0587-.183.059-.2791V7.89432c.0005-.09224-.0172-.18367-.052-.26906-.0349-.08539-.0863-.16306-.1513-.22855L17.0546 5.6446c-.0655-.06496-.1431-.11635-.2285-.15123-.0854-.03488-.1768-.05255-.2691-.05202h-4.2051c-.1855.00258-.3633.07518-.4976.20325l-6.65802 6.651c-.12806.1343-.20066.3121-.20324.4976-.00053.0923.01714.1837.05202.2691.03488.0854.08627.1631.15122.2285l5.96422 5.9643c.0655.0649.1431.1163.2285.1512s.1769.0525.2691.052c.1831-.0043.3581-.0768.4906-.2032Zm-5.47363-6.4619 5.95723-5.95016h3.6374l1.3316 1.33161V11.805l-5.9502 5.9572-4.97603-4.969Z" fill="current" />
</svg>
