<svg width="24" height="25" fill="none" xmlns="http://www.w3.org/2000/svg">
	<path d="M18.6129 13.0436c-.1209-.1377-.1876-.3147-.1876-.4979 0-.1833.0667-.3603.1876-.498l.9657-1.0864c.1064-.1187.1725-.268.1888-.4266.0162-.1586-.0181-.3183-.0982-.4561l-1.5089-2.61037c-.0793-.13767-.2001-.2468-.345-.31183-.145-.06502-.3068-.08263-.4623-.05031l-1.4184.28669c-.1804.03729-.3683.00724-.5282-.0845-.1598-.09173-.2805-.23879-.3394-.41343l-.4602-1.38065c-.0506-.14985-.147-.28-.2757-.37206-.1286-.09206-.2829-.14137-.441-.14096h-3.0178c-.1645-.00859-.3274.03691-.4636.12955s-.2384.22732-.2909.38347l-.42246 1.38065c-.05885.17464-.17958.3217-.33942.41343-.15984.09174-.34772.12179-.5282.0845l-1.45609-.28669c-.14745-.02084-.29778.00243-.43203.06688-.13426.06444-.24644.16717-.32241.29526l-1.5089 2.61037c-.08212.1363-.11904.2951-.10549.4536.01355.1586.07688.3087.18093.4291l.95815 1.0864c.12096.1377.18766.3147.18766.498 0 .1832-.0667.3602-.18766.4979L5.18373 14.13c-.10405.1204-.16738.2706-.18093.4291-.01355.1586.02337.3173.10549.4536l1.5089 2.6104c.07929.1377.20001.2468.34497.3118.14495.0651.30674.0827.46229.0503l1.41836-.2866c.18048-.0373.36836-.0073.5282.0845.15984.0917.28057.2387.33942.4134l.46017 1.3806c.0525.1562.1547.2909.2909.3835.1363.0926.2991.1381.4636.1296h3.0178c.1581.0004.3124-.0489.4411-.141.1286-.0921.225-.2222.2756-.3721l.4602-1.3806c.0589-.1747.1796-.3217.3394-.4134.1599-.0918.3478-.1218.5282-.0845l1.4184.2866c.1556.0324.3173.0148.4623-.0503.1449-.065.2657-.1741.345-.3118l1.5089-2.6104c.0801-.1378.1145-.2975.0982-.4561-.0163-.1585-.0824-.3079-.1888-.4266l-1.0185-1.0864Zm-1.1241 1.011.6036.679-.9657 1.6748-.8903-.181c-.5434-.1111-1.1086-.0188-1.5884.2594-.4798.2781-.8408.7227-1.0144 1.2495l-.2867.845h-1.9314l-.2716-.8601c-.1737-.5267-.5346-.9714-1.0144-1.2495-.47986-.2782-1.0451-.3705-1.58847-.2594l-.89025.1811L6.67 14.726l.60356-.679c.37115-.4149.57634-.9521.57634-1.5089 0-.5567-.20519-1.0939-.57634-1.5089l-.60356-.679.96569-1.65977.89025.18107c.54337.11107 1.10861.01877 1.58846-.25938.4798-.27815.8408-.72279 1.0144-1.24952l.2867-.85252h1.9314l.2867.86007c.1736.52672.5346.97136 1.0144 1.24952.4798.27815 1.045.37045 1.5884.25938l.8903-.18107.9657 1.67492-.6036.679c-.367.414-.5696.9481-.5696 1.5013 0 .5533.2026 1.0874.5696 1.5014Zm-5.1076-4.52673c-.5969 0-1.1803.17699-1.6766.50863-.4963.3316-.8831.8029-1.11151 1.3543-.2284.5514-.28817 1.1582-.17172 1.7436.11644.5854.40385 1.1231.82593 1.5452.422.422.9597.7094 1.5451.8259.5854.1164 1.1922.0567 1.7436-.1718.5515-.2284 1.0228-.6152 1.3544-1.1114.3316-.4963.5086-1.0798.5086-1.6766 0-.8004-.318-1.568-.8839-2.1339-.566-.56598-1.3336-.88393-2.1339-.88393Zm0 4.52673c-.2985 0-.5902-.0885-.8383-.2543-.2482-.1658-.4416-.4015-.5558-.6772-.1142-.2757-.1441-.5791-.0858-.8718.0582-.2927.2019-.5616.4129-.7726.211-.211.4799-.3547.7726-.4129.2927-.0583.5961-.0284.8718.0858.2757.1142.5114.3076.6772.5558.1658.2481.2543.5398.2543.8383 0 .4002-.159.7839-.442 1.0669-.2829.283-.6667.442-1.0669.442Z" fill="current" />
</svg>
