<svg width="24" height="25" fill="none" xmlns="http://www.w3.org/2000/svg">
	<path d="M14.9137 12.961c.6404-.5011 1.1079-1.1882 1.3373-1.9658.2294-.7776.2095-1.607-.0571-2.37278-.2666-.76577-.7666-1.42987-1.4304-1.8999-.6638-.47003-1.4583-.72261-2.2732-.72261-.8148 0-1.6094.25258-2.2732.72261-.66379.47003-1.16375 1.13413-1.43035 1.8999-.26659.76578-.28656 1.59518-.05712 2.37278.22944.7776.69687 1.4647 1.33727 1.9658-1.09734.4372-2.05481 1.1624-2.77033 2.0982-.71552.9358-1.16227 2.0472-1.29263 3.2157-.00944.0853-.00188.1716.02223.254.02411.0825.0643.1593.11828.2263.10903.1352.2676.2218.44085.2408.17324.0189.34696-.0313.48293-.1398.13598-.1084.22307-.2661.24213-.4384.14343-1.2699.75229-2.4427 1.71025-3.2944.95795-.8516 2.19779-1.3224 3.48279-1.3224 1.2849 0 2.5248.4708 3.4827 1.3224.958.8517 1.5669 2.0245 1.7103 3.2944.0178.1596.0943.3071.215.4138.1206.1068.2767.1654.4382.1644h.0719c.1712-.0196.3277-.1057.4354-.2396.1076-.1338.1577-.3046.1394-.475-.131-1.1718-.5802-2.286-1.2994-3.2233-.7192-.9373-1.6813-1.6622-2.7832-2.0971Zm-2.4234-.4613c-.5168 0-1.0219-.1524-1.4516-.4379-.4297-.2855-.7646-.6914-.9623-1.1662-.1978-.4748-.24954-.99725-.14872-1.50131.10082-.50406.34962-.96707.71512-1.33048.3654-.3634.8309-.61089 1.3378-.71115.5068-.10026 1.0322-.04881 1.5096.14787.4774.19667.8855.52973 1.1726.95705.2871.42732.4404.92972.4404 1.44365 0 .68917-.2753 1.35007-.7653 1.83737-.49.4874-1.1546.7611-1.8476.7611Z" fill="current" />
</svg>
