<svg width="24" height="25" fill="none" xmlns="http://www.w3.org/2000/svg">
	<path d="M16.9001 8.95472h-.7v-.70001c0-.55696-.2213-1.09111-.6151-1.48494-.3938-.39383-.928-.61508-1.4849-.61508H7.10002c-.55696 0-1.09111.22125-1.48494.61508C5.22125 7.1636 5 7.69775 5 8.25471v8.40009c0 .5569.22125 1.0911.61508 1.4849.39383.3938.92798.6151 1.48494.6151h9.80008c.557 0 1.0911-.2213 1.4849-.6151.3939-.3938.6151-.928.6151-1.4849v-5.6001c0-.5569-.2212-1.09107-.6151-1.4849-.3938-.39383-.9279-.61508-1.4849-.61508ZM7.10002 7.5547h7.00008c.1856 0 .3637.07375.4949.20503.1313.13128.2051.30933.2051.49498v.70001H7.10002c-.18566 0-.36371-.07376-.49498-.20503-.13128-.13128-.20503-.30933-.20503-.49498 0-.18565.07375-.3637.20503-.49498.13127-.13128.30932-.20503.49498-.20503Zm10.50008 7.0001h-.7c-.1857 0-.3637-.0738-.495-.2051-.1313-.1312-.205-.3093-.205-.4949 0-.1857.0737-.3637.205-.495.1313-.1313.3093-.2051.495-.2051h.7v1.4001Zm0-2.8001h-.7c-.557 0-1.0911.2213-1.4849.6151-.3939.3938-.6151.928-.6151 1.485 0 .5569.2212 1.0911.6151 1.4849.3938.3938.9279.6151 1.4849.6151h.7v.7c0 .1856-.0738.3637-.205.495-.1313.1312-.3094.205-.495.205H7.10002c-.18566 0-.36371-.0738-.49498-.205-.13128-.1313-.20503-.3094-.20503-.495v-6.4191c.22489.0791.46161.1194.70001.119h9.80008c.1856 0 .3637.0738.495.2051.1312.1312.205.3093.205.4949v.7Z" fill="current" />
</svg>
