<svg width="36" height="32" fill="none" xmlns="http://www.w3.org/2000/svg"><path d="M7.89806 21.6096c.11575.2617.34235.4714.62993.5829.28759.1114.6126.1155.90356.0114.29095-.1042.524-.308.64785-.5667.1239-.2588.1285-.5512.0127-.8129l-1.32113-2.9928 7.83263-1.56v5.0409c0 .2815.1242.5514.3455.7505.2212.199.5212.3108.8341.3108.3128 0 .6128-.1118.8341-.3108.2212-.1991.3455-.469.3455-.7505v-5.0409l7.8325 1.56-1.3211 2.9928c-.0575.1296-.086.2681-.0839.4076.0022.1395.0348.2773.0962.4054.0613.1282.1502.2442.2614.3414.1113.0972.2427.1737.3869.2252.1389.0494.287.0746.4364.0743.2363.0002.4672-.0634.6627-.1827.1956-.1192.3469-.2885.4344-.4859l1.8283-4.1495c.0628-.1435.09-.2976.0799-.4516-.0102-.154-.0576-.3041-.1388-.4399-.0789-.1353-.1892-.2537-.3236-.3471-.1344-.0934-.2895-.1596-.455-.1941l-3.7983-.7535v-4.574c0-.2815-.1243-.5514-.3455-.75043-.2212-.19903-.5213-.31084-.8341-.31084H21.322V6.45487c0-.28146-.1243-.5514-.3455-.75042-.2212-.19902-.5213-.31083-.8341-.31083h-4.7185c-.3128 0-.6128.11181-.8341.31083-.2212.19902-.3455.46896-.3455.75042v3.18376h-2.3592c-.3128 0-.6129.11181-.8341.31084-.2212.19903-.3455.46893-.3455.75043v4.574l-3.79831.7323c-.16543.0344-.32062.1007-.45499.1941-.13436.0934-.24473.2118-.32355.3471-.08124.1358-.1286.2859-.13879.4399-.01019.1539.01705.308.07981.4516l1.82839 4.1707ZM16.6036 7.51612h2.3592v2.12251h-2.3592V7.51612Zm-3.5389 4.24498h9.4369v3.0352l-4.4589-.9127h-.5191l-4.4589.9127v-3.0352Zm14.9928 11.971c-.4139.1141-.8102.2745-1.1796.4776-.3758.1977-.8032.3019-1.2386.3019-.4353 0-.8628-.1042-1.2385-.3019-.8172-.4148-1.7395-.6327-2.6778-.6327-.9382 0-1.8605.2179-2.6777.6327-.3809.1954-.8118.2981-1.2503.2981-.4386 0-.8695-.1027-1.2504-.2981-.8179-.4128-1.74-.6296-2.6777-.6296-.9378 0-1.8599.2168-2.6777.6296-.3758.1977-.8033.3019-1.23863.3019-.43532 0-.8628-.1042-1.23858-.3019-.36942-.2031-.76572-.3635-1.17961-.4776-.15696-.0502-.32395-.0699-.48999-.0579-.16605.012-.32737.0556-.47335.1278-.14599.0722-.27332.1714-.37363.291-.1003.1197-.1713.2571-.20831.4032-.08807.2688-.05439.558.09367.8045.14807.2466.3985.4304.69666.5114.23753.0579.46415.1474.67238.2654.71567.3778 1.52944.5791 2.35921.5837.86178.0001 1.70838-.2049 2.45358-.5944.4624-.2294.9818-.3498 1.5099-.3498s1.0475.1204 1.5099.3498c.74.3807 1.5776.581 2.43.581.8524 0 1.69-.2003 2.43-.581.4623-.2294.9818-.3498 1.5099-.3498.528 0 1.0475.1204 1.5099.3498.7311.3926 1.5667.5999 2.4182.5999.8514 0 1.687-.2073 2.4181-.5999.2083-.1179.4349-.2074.6724-.2653.157-.0285.3059-.0856.4376-.1676.1316-.082.2434-.1873.3284-.3094.085-.1222.1414-.2586.1659-.401.0245-.1424.0164-.2878-.0236-.4273-.0375-.1436-.1078-.2786-.2066-.3964-.0987-.1178-.2237-.2158-.3668-.2877-.1432-.0719-.3015-.1161-.4648-.1299-.1632-.0138-.3279.0032-.4835.0499Z" fill="#81868C"/></svg>