<svg width="24" height="25" fill="none" xmlns="http://www.w3.org/2000/svg">
	<path d="M5.32922 16.6619c.07811.1963.231.3536.42505.4371.19405.0836.41336.0867.60968.0086s.35357-.231.43716-.425c.08359-.1941.08667-.4134.00856-.6097l-.89145-2.2446 5.28508-1.17v3.7807c0 .2111.0838.4136.2331.5628.1493.1493.3517.2332.5628.2332.2111 0 .4136-.0839.5628-.2332.1493-.1492.2331-.3517.2331-.5628v-3.7807l5.2851 1.17-.8915 2.2446c-.0387.0972-.058.2011-.0565.3057.0014.1046.0234.208.0648.3041.0414.0961.1014.1831.1764.256.0751.0729.1638.1303.2611.1689.0937.0371.1937.056.2945.0557.1594.0002.3152-.0475.4471-.1369.132-.0894.2341-.2164.2931-.3645l1.2337-3.1121c.0423-.1077.0607-.2233.0538-.3387-.0068-.1155-.0388-.2281-.0936-.3299-.0532-.1015-.1277-.1903-.2183-.2604-.0907-.07-.1954-.1197-.307-.1456l-2.5629-.5651V8.47961c0-.21109-.0839-.41355-.2332-.56281-.1492-.14927-.3517-.23313-.5628-.23313H14.387V5.29585c0-.2111-.0838-.41355-.2331-.56282-.1493-.14926-.3517-.23312-.5628-.23312h-3.1838c-.2111 0-.41352.08386-.56279.23312-.14927.14927-.23312.35172-.23312.56282v2.38782H8.0195c-.21109 0-.41354.08386-.56281.23313-.14927.14926-.23313.35172-.23313.56281v3.43049l-2.56293.5492c-.11162.0259-.21634.0755-.307.1456-.09066.0701-.16513.1589-.21832.2603-.05481.1019-.08677.2145-.09364.33-.00688.1154.0115.231.05385.3386l1.2337 3.1281ZM11.2033 6.09179h1.5918v1.59188h-1.5918V6.09179ZM8.81544 9.27555H15.183v2.27635l-3.0087-.6845h-.3502l-3.00866.6845V9.27555ZM18.9318 18.2538c-.2792.0855-.5466.2059-.7959.3581-.2536.1483-.542.2265-.8357.2265-.2938 0-.5822-.0782-.8358-.2265-.5513-.311-1.1737-.4745-1.8068-.4745-.633 0-1.2554.1635-1.8067.4745-.2571.1466-.5478.2237-.8437.2237-.2959 0-.5867-.0771-.8437-.2237-.5519-.3095-1.17405-.4721-1.80682-.4721-.63276 0-1.25491.1626-1.80678.4721-.25356.1483-.54201.2265-.83574.2265-.29373 0-.58218-.0782-.83574-.2265-.24926-.1522-.51667-.2726-.79594-.3581-.1059-.0377-.21858-.0525-.33062-.0435-.11204.0091-.22089.0417-.31939.0959-.09851.0541-.18443.1285-.25211.2183-.06768.0897-.11558.1927-.14056.3023-.05942.2016-.0367.4185.06321.6034.0999.1849.26889.3228.47007.3836.16027.0434.31318.1105.45369.199.4829.2834 1.03199.4344 1.59188.4378.58151.0001 1.1527-.1537 1.65556-.4458.31198-.1721.66249-.2623 1.0188-.2623.35631 0 .70681.0902 1.01879.2623.4993.2855 1.0645.4357 1.6397.4357.5751 0 1.1403-.1502 1.6396-.4357.312-.1721.6625-.2623 1.0188-.2623.3563 0 .7068.0902 1.0188.2623.4933.2945 1.0572.4499 1.6317.4499s1.1383-.1554 1.6317-.4499c.1405-.0885.2934-.1555.4536-.199.106-.0214.2064-.0642.2953-.1257.0888-.0615.1642-.1404.2216-.232.0573-.0917.0954-.194.1119-.3008s.0111-.2158-.0159-.3205c-.0253-.1077-.0728-.2089-.1394-.2973-.0666-.0883-.1509-.1618-.2475-.2157-.0967-.0539-.2035-.0871-.3136-.0975-.1102-.0103-.2213.0024-.3263.0375Z" fill="current" />
</svg>
